<svg height="512pt" viewBox="0 0 512 512" width="512pt" xmlns="http://www.w3.org/2000/svg"><path d="M502 50v412c0 22.09-17.91 40-40 40H50c-22.09 0-40-17.91-40-40V50c0-22.09 17.91-40 40-40h412c22.09 0 40 17.91 40 40zm0 0" fill="#fd57bf"/><path d="M416 156v240c0 22.09-17.91 40-40 40H136c-22.09 0-40-17.91-40-40V156c0-22.09 17.91-40 40-40h240c22.09 0 40 17.91 40 40zm0 0" fill="#f0f0fa"/><path d="M376 176c0 11.047-8.953 20-20 20s-20-8.953-20-20 8.953-20 20-20 20 8.953 20 20zm-40 100c0 44.184-35.816 80-80 80s-80-35.816-80-80 35.816-80 80-80 80 35.816 80 80zm0 0" fill="#ff9cd7"/><path d="M386 53c0 5.523-4.477 10-10 10s-10-4.477-10-10 4.477-10 10-10 10 4.477 10 10zm-10 53H136c-27.57 0-50 22.43-50 50v240c0 27.57 22.43 50 50 50h240c27.57 0 50-22.43 50-50V156c0-27.57-22.43-50-50-50zm30 290c0 16.543-13.457 30-30 30H136c-16.543 0-30-13.457-30-30V156c0-16.543 13.457-30 30-30h240c16.543 0 30 13.457 30 30zm0 0"/><path d="M256 186c-49.625 0-90 40.375-90 90s40.375 90 90 90 90-40.375 90-90-40.375-90-90-90zm0 160c-38.598 0-70-31.402-70-70s31.402-70 70-70 70 31.402 70 70-31.402 70-70 70zm100-200c-16.543 0-30 13.457-30 30s13.457 30 30 30 30-13.457 30-30-13.457-30-30-30zm0 40c-5.516 0-10-4.484-10-10s4.484-10 10-10 10 4.484 10 10-4.484 10-10 10zm0 0"/><path d="M462 0H50C22.43 0 0 22.43 0 50v412c0 27.57 22.43 50 50 50h412c27.57 0 50-22.43 50-50V50c0-27.57-22.43-50-50-50zm30 462c0 16.543-13.457 30-30 30H50c-16.543 0-30-13.457-30-30V50c0-16.543 13.457-30 30-30h412c16.543 0 30 13.457 30 30zm0 0"/><path d="M136 63h200c5.523 0 10-4.477 10-10s-4.477-10-10-10H136c-5.523 0-10 4.477-10 10s4.477 10 10 10zm0 0"/></svg>