<svg height="512pt" viewBox="0 0 512 512" width="512pt" xmlns="http://www.w3.org/2000/svg"><path d="M502 50v412c0 22.09-17.91 40-40 40H50c-22.09 0-40-17.91-40-40V50c0-22.09 17.91-40 40-40h412c22.09 0 40 17.91 40 40zm0 0" fill="#7d97f4"/><path d="M416 376h-50c-5.04.078-14.43-1.36-18.922-3.64-16.77-8.551-23.61-26.52-38.848-37.872-10.421-7.77-19.07-3.68-24.859 7.282-4.59 8.707-7.371 15.335-7.371 34.23-96.59 0-137.55-73.36-178.738-180h59.789c7.39 19.04 31.488 90.898 52.05 90.898 18.54 0 18.028-46.726 15.547-64.32-1.796-12.7-4.68-20.969-16.726-25.02 8.238-7.277 55.457-4.507 68.078-1.558 0 0 .84.2 1.68.39l1.28 6.258c3.75 18.461-8.62 71.18 8 82.211l4.509 1.38c19.75.71 51.75-68.298 56.77-85.239 19.292-.102 58.991.07 67.312 0 3.469 17.262-38.59 63.738-50.102 83.95-4.43 7.784-5.422 15.245.832 23.538 9.192 11.68 48.692 42.645 49.719 67.512zm0 0" fill="#f0f0fa"/><path d="M386 53c0 5.523-4.477 10-10 10s-10-4.477-10-10 4.477-10 10-10 10 4.477 10 10zm-11.797 249.39c-3.5-4.699-2.742-7.78-.062-12.492 3.343-5.87 10-14.836 17.046-24.324 22.602-30.437 37.188-51.512 34.168-66.543a10.003 10.003 0 00-9.804-8.031h-.086c-6.969.062-49.125.012-67.278.102-4.406.02-8.28 2.832-9.535 7.058-2.183 7.367-10.71 27.29-21.047 45.527-13.402 23.649-22.183 31.06-25.277 32.36l-.488-.152c-1.012-1.25-2.77-4.625-3.492-13.364-.754-9.14-.086-20.195.562-30.886.758-12.5 1.414-23.297-.152-30.997-1.078-2.816-.258-12.07-8.875-14.011-11.867-2.676-27.973-3.57-39.457-3.692-27.2-.27-35.203 3.657-39.125 7.121a9.993 9.993 0 00-3.18 9.477 9.993 9.993 0 006.613 7.496c6.098 2.05 8.274 4.652 10.016 16.938 1.105 7.84 1.684 21.003.484 32.75-1.687 16.57-5.707 19.886-6.101 20.156-.856-.281-7.535-3.18-19.598-27.656-10.379-21.055-19.09-46.352-23.16-56.844a10 10 0 00-9.324-6.383H97.26a9.999 9.999 0 00-9.328 13.605c18.731 48.5 40.223 98.176 70.368 132.938C189.492 368.516 227.992 386 276 386c5.523 0 10-4.477 10-10 0-17.25 2.426-22.371 6.21-29.559 2.099-3.968 4.15-5.671 5.267-5.921 1.011-.235 2.796.511 4.78 1.992 5.688 4.234 10.204 9.808 14.981 15.707 6.887 8.5 14.008 17.293 25.317 23.058 6.164 3.13 17.187 4.715 23.515 4.621H416c5.684 0 10.227-4.632 9.992-10.312-1.222-29.559-42.648-61.707-51.789-73.195zM366 366h-.16c-4.172.102-11.75-1.293-14.219-2.55-7.508-3.829-12.762-10.313-18.844-17.817-5.343-6.602-10.87-13.426-18.57-19.16-14.184-10.575-30.242-7.239-39.684 10.636-5.289 10.032-7.34 16.641-8.191 28.625-37.785-2.125-67.508-16.984-92.922-46.296-25.406-29.301-44.683-71.125-61.496-113.438h38.219c14.945 40.254 34.332 90.902 58.969 90.902 6.054 0 11.484-2.566 15.707-7.425 16.214-18.66 9.812-67.801 9.742-68.301-.856-6.051-2.082-12.41-5.055-18.078 12.7-.5 29.727.324 39.715 1.808.965 5.207.34 15.535-.266 25.528-1.472 24.328-2.996 49.441 10.055 60.898.39.344 7.637 4.742 12.11 4.902 8.132.325 21.43-3.64 42.937-41.007 8.77-15.239 16.918-32.786 21.305-44.25 14.449-.028 34.695-.075 47.988-.063-5.863 12.945-18.828 30.106-28.211 42.738-7.738 10.422-14.422 19.422-18.367 26.352-7.34 12.89-6.106 24.371 1.535 34.504.039.058.082.113.125.168C367.91 326.73 392.539 345.422 402.8 366zm0 0"/><path d="M462 0H50C22.43 0 0 22.43 0 50v412c0 27.57 22.43 50 50 50h412c27.57 0 50-22.43 50-50V50c0-27.57-22.43-50-50-50zm30 462c0 16.543-13.457 30-30 30H50c-16.543 0-30-13.457-30-30V50c0-16.543 13.457-30 30-30h412c16.543 0 30 13.457 30 30zm0 0"/><path d="M136 63h200c5.523 0 10-4.477 10-10s-4.477-10-10-10H136c-5.523 0-10 4.477-10 10s4.477 10 10 10zm0 0"/></svg>