<svg height="512pt" viewBox="0 0 512 512" width="512pt" xmlns="http://www.w3.org/2000/svg"><path d="M502 50v412c0 22.09-17.91 40-40 40H50c-22.09 0-40-17.91-40-40V50c0-22.09 17.91-40 40-40h412c22.09 0 40 17.91 40 40zm0 0" fill="#7dd787"/><path d="M256 116c88.371 0 160 71.629 160 160s-71.629 160-160 160c-31.691 0-61.219-9.21-86.07-25.102l-72.168 23.34 23.34-72.168C105.21 337.22 96 307.691 96 276c0-88.371 71.629-160 160-160zm0 0" fill="#f0f0fa"/><path d="M352.719 324.02c4.39 4.39 4.39 11.5 0 15.878l-7.938 7.942c-17.543 17.55-83.203 12.101-127.062-31.762-43.86-43.86-49.309-109.52-31.758-127.058l7.937-7.942c4.391-4.387 11.5-4.387 15.883 0l31.77 31.762c4.379 4.39 4.379 11.5 0 15.89l-7.942 7.942c-8.78 8.77-8.78 22.988 0 31.758l31.762 31.77c8.77 8.769 22.988 8.769 31.758 0l7.95-7.938c4.382-4.39 11.491-4.39 15.882 0zm0 0" fill="#7dd787"/><path d="M386 53c0 5.523-4.477 10-10 10s-10-4.477-10-10 4.477-10 10-10 10 4.477 10 10zm-130 53c-93.738 0-170 76.262-170 170 0 30.941 8.34 61.055 24.16 87.398l-21.914 67.766a9.998 9.998 0 0012.59 12.59l67.766-21.914C194.945 437.66 225.062 446 256 446c93.738 0 170-76.262 170-170s-76.262-170-170-170zm0 320c-28.715 0-56.613-8.137-80.684-23.523a9.997 9.997 0 00-8.464-1.09l-53.559 17.32 17.32-53.562a9.998 9.998 0 00-1.09-8.461C114.137 332.614 106 304.714 106 276c0-82.71 67.29-150 150-150s150 67.29 150 150-67.29 150-150 150zm0 0"/><path d="M462 0H50C22.43 0 0 22.43 0 50v412c0 27.57 22.43 50 50 50h412c27.57 0 50-22.43 50-50V50c0-27.57-22.43-50-50-50zm30 462c0 16.543-13.457 30-30 30H50c-16.543 0-30-13.457-30-30V50c0-16.543 13.457-30 30-30h412c16.543 0 30 13.457 30 30zm0 0"/><path d="M136 63h200c5.523 0 10-4.477 10-10s-4.477-10-10-10H136c-5.523 0-10 4.477-10 10s4.477 10 10 10zm192.031 222.188a21.094 21.094 0 00-15.015-6.22h-.012c-5.672 0-11 2.216-14.992 6.216l-7.953 7.945c-4.868 4.867-12.75 4.867-17.618 0l-31.765-31.774c-4.836-4.832-4.906-12.707.004-17.613l7.949-7.949c8.254-8.273 8.254-21.742-.012-30.023l-31.758-31.75c-8.285-8.305-21.73-8.313-30.03-.008l-7.938 7.937h-.004c-11.367 11.364-15.16 35.364-9.895 62.625 5.695 29.504 20.488 57.41 41.656 78.578 21.164 21.164 49.07 35.957 78.575 41.657 19.836 3.828 48.476 4.265 62.629-9.899l7.93-7.93c8.308-8.285 8.316-21.722.007-30.03zm9.676 55.582c-5.426 5.425-22.516 8.68-44.691 4.402-14.84-2.867-43.438-11.375-68.227-36.164-24.785-24.785-33.293-53.383-36.16-68.223-4.281-22.176-1.027-39.27 4.398-44.691 0 0 .004 0 .004-.004l7.942-7.938a1.218 1.218 0 011.738 0l31.758 31.75c.484.485.484 1.278.008 1.754l-7.934 7.938c-12.691 12.676-12.707 33.219-.008 45.906l31.762 31.77c12.676 12.675 33.215 12.69 45.898.003l7.961-7.953a1.222 1.222 0 011.73.008c33.462 33.64 32.126 31.668 32.126 32.637 0 .894-.117.453-8.305 8.805zm0 0"/></svg>